<svg width="16" height="16" viewBox="0 0 16 16" fill="none" xmlns="http://www.w3.org/2000/svg">
<g clip-path="url(#clip0_414_172)">
<rect width="16" height="16" rx="2" fill="url(#paint0_linear_414_172)"/>
<path d="M5.99707 11.998V9.99854H8V11.998H5.99707ZM-6 11.998V7.99902C-6 6.89616 -5.61035 5.95394 -4.83105 5.17236C-4.04948 4.39079 -3.10612 4 -2.00098 4C-0.898112 4 0.0441081 4.39079 0.825684 5.17236C0.884928 5.23161 0.943034 5.29199 1 5.35352C1.05469 5.29199 1.11165 5.23161 1.1709 5.17236C1.95247 4.39079 2.89469 4 3.99756 4C5.1027 4 6.04606 4.39079 6.82764 5.17236C7.60921 5.95394 8 6.89616 8 7.99902H5.99707C5.99707 7.44759 5.80111 6.97705 5.40918 6.5874C5.01953 6.19548 4.54899 5.99951 3.99756 5.99951C3.44613 5.99951 2.97559 6.19548 2.58594 6.5874C2.19401 6.97705 1.99805 7.44759 1.99805 7.99902V11.998H-0.00146484V7.99902C-0.00146484 7.44759 -0.197428 6.97705 -0.589355 6.5874C-0.979004 6.19548 -1.44954 5.99951 -2.00098 5.99951C-2.55241 5.99951 -3.02295 6.19548 -3.4126 6.5874C-3.80452 6.97705 -4.00049 7.44759 -4.00049 7.99902V11.998H-6Z" fill="white"/>
<path d="M10 11.9976V5.99902H13.999C14.5505 5.99902 15.021 5.80306 15.4106 5.41113C15.8026 5.02148 15.9985 4.55094 15.9985 3.99951H17.998C17.998 5.10238 17.6073 6.0446 16.8257 6.82617C16.7664 6.88542 16.7061 6.94352 16.6445 7.00049C16.7061 7.05518 16.7664 7.11214 16.8257 7.17139C17.6073 7.95296 17.998 8.89518 17.998 9.99805V11.9976H15.9985V9.99805C15.9985 9.44661 15.8026 8.97607 15.4106 8.58643C15.021 8.1945 14.5505 7.99854 13.999 7.99854H11.9995V11.9976H10ZM10 3.99951V2H11.9995V3.99951H10Z" fill="white"/>
</g>
<defs>
<linearGradient id="paint0_linear_414_172" x1="8" y1="0" x2="8" y2="16" gradientUnits="userSpaceOnUse">
<stop stop-color="#15E8DB"/>
<stop offset="1" stop-color="#0E7ADE"/>
</linearGradient>
<clipPath id="clip0_414_172">
<rect width="16" height="16" rx="2" fill="white"/>
</clipPath>
</defs>
</svg>
