<svg width="64" height="64" viewBox="0 0 64 64" fill="none" xmlns="http://www.w3.org/2000/svg">
<path fill-rule="evenodd" clip-rule="evenodd" d="M22.8202 6.57501L17.4621 26.5626L19.1491 27.0141C19.4523 27.086 19.7522 27.1663 20.0485 27.2549L31.0983 30.2125L32.8016 23.8611L57.0201 30.3516L60.675 16.7202L22.8202 6.57501ZM50.5296 54.575L30.4097 49.1828C31.2247 47.2426 31.6751 45.1114 31.6751 42.875C31.6751 39.7053 30.7704 36.747 29.2051 34.2441L40.5483 37.2839L42.2516 30.9327L55.8878 34.5875L50.5296 54.575ZM15.375 29.875C8.19531 29.875 2.375 35.6953 2.375 42.875C2.375 50.0547 8.19531 55.875 15.375 55.875C22.5547 55.875 28.375 50.0547 28.375 42.875C28.375 35.6953 22.5547 29.875 15.375 29.875ZM11.9584 33.4739C8.57092 34.7052 6.03724 37.7154 5.48675 41.375H9.3626C9.63772 38.5732 10.5282 35.8764 11.9584 33.4739ZM9.3626 44.375H5.48675C6.03724 48.0346 8.57092 51.0448 11.9584 52.2762C10.5282 49.8736 9.63772 47.1768 9.3626 44.375ZM18.7916 52.2762C22.1791 51.0448 24.7128 48.0346 25.2633 44.375H21.3874C21.1123 47.1768 20.2218 49.8736 18.7916 52.2762ZM18.3703 44.375C18.0479 47.1368 17.0151 49.7677 15.375 52.0101C13.7349 49.7677 12.7021 47.1368 12.3798 44.375H18.3703ZM18.3703 41.375H12.3798C12.7021 38.6132 13.7349 35.9823 15.375 33.7399C17.0151 35.9823 18.0479 38.6132 18.3703 41.375ZM21.3874 41.375C21.1123 38.5732 20.2218 35.8764 18.7916 33.4739C22.1791 34.7052 24.7128 37.7154 25.2633 41.375H21.3874Z" fill="url(#paint0_linear_925_42)"/>
<defs>
<linearGradient id="paint0_linear_925_42" x1="31.525" y1="6.57501" x2="31.525" y2="55.875" gradientUnits="userSpaceOnUse">
<stop stop-color="#1EAEFF"/>
<stop offset="1" stop-color="#0454EF"/>
</linearGradient>
</defs>
</svg>
