<svg width="32" height="32" viewBox="0 0 32 32" fill="none" xmlns="http://www.w3.org/2000/svg">
<path d="M3 8C3 5.23858 5.23858 3 8 3H25C27.7614 3 30 5.23858 30 8V20C30 22.7614 27.7614 25 25 25H10L5.56066 29.4393C4.61571 30.3843 3 29.715 3 28.3787V8Z" fill="url(#paint0_linear_415_223)"/>
<path d="M10.5251 10.1716L9.39626 9.18382L10.5251 10.1716ZM17.5251 10.1716L16.3963 9.18382L17.5251 10.1716ZM18 13C18 11.6012 17.5156 10.2259 16.6037 9.18382L14.346 11.1593C14.7469 11.6175 15 12.2771 15 13H18ZM16.6037 9.18382C15.6863 8.13531 14.3956 7.5 13 7.5L13 10.5C13.4609 10.5 13.9507 10.7075 14.346 11.1593L16.6037 9.18382ZM13 7.5C11.6044 7.5 10.3137 8.13531 9.39626 9.18382L11.654 11.1593C12.0493 10.7075 12.5391 10.5 13 10.5L13 7.5ZM9.39626 9.18382C8.48442 10.2259 8 11.6012 8 13L11 13C11 12.2771 11.2531 11.6175 11.654 11.1593L9.39626 9.18382ZM25 13C25 11.6012 24.5156 10.2259 23.6037 9.18382L21.346 11.1593C21.7469 11.6175 22 12.2771 22 13H25ZM23.6037 9.18382C22.6863 8.13531 21.3956 7.5 20 7.5L20 10.5C20.4609 10.5 20.9507 10.7075 21.346 11.1593L23.6037 9.18382ZM20 7.5C18.6044 7.5 17.3137 8.13531 16.3963 9.18382L18.654 11.1593C19.0493 10.7075 19.5391 10.5 20 10.5L20 7.5ZM16.3963 9.18382C15.4844 10.2259 15 11.6012 15 13L18 13C18 12.2771 18.2531 11.6175 18.654 11.1593L16.3963 9.18382ZM8 13V20H11V13H8ZM22 13V20H25V13H22ZM15 13V16H18V13H15Z" fill="white"/>
<defs>
<linearGradient id="paint0_linear_415_223" x1="17" y1="2" x2="17" y2="33" gradientUnits="userSpaceOnUse">
<stop offset="0.25" stop-color="#876EEB"/>
<stop offset="1" stop-color="#5C39EE"/>
</linearGradient>
</defs>
</svg>
