<svg width="32" height="32" viewBox="0 0 32 32" fill="none" xmlns="http://www.w3.org/2000/svg">
<path d="M27.9287 9.97474C27.947 10.2351 27.947 10.4955 27.947 10.7583C27.947 18.7654 21.7556 28 10.4345 28V27.9952C7.09019 28 3.81536 27.0569 1 25.2786C1.48629 25.3362 1.97502 25.365 2.46496 25.3662C5.23644 25.3686 7.9287 24.453 10.1091 22.7671C7.47532 22.7179 5.16575 21.0272 4.35893 18.559C5.28154 18.7342 6.23218 18.6982 7.13772 18.4546C4.2663 17.8834 2.20049 15.3996 2.20049 12.515C2.20049 12.4886 2.20049 12.4634 2.20049 12.4382C3.05606 12.9074 4.01402 13.1677 4.99391 13.1965C2.28946 11.417 1.45582 7.87487 3.08897 5.10545C6.21389 8.89121 10.8245 11.1927 15.7739 11.4362C15.2779 9.33158 15.9555 7.12612 17.5545 5.64661C20.0335 3.35236 23.9324 3.46995 26.2626 5.90939C27.6411 5.64181 28.9622 5.14384 30.1712 4.43829C29.7118 5.841 28.7502 7.03252 27.4656 7.78968C28.6856 7.64808 29.8775 7.3265 31 6.83574C30.1737 8.05486 29.1328 9.11679 27.9287 9.97474Z" fill="url(#paint0_linear_416_266)"/>
<defs>
<linearGradient id="paint0_linear_416_266" x1="16" y1="4" x2="16" y2="28" gradientUnits="userSpaceOnUse">
<stop stop-color="#34B2FF"/>
<stop offset="1" stop-color="#2285E8"/>
</linearGradient>
</defs>
</svg>
