<svg width="32" height="32" viewBox="0 0 32 32" fill="none" xmlns="http://www.w3.org/2000/svg">
<path d="M26.4129 6.84247C24.4418 5.96933 22.361 5.3499 20.2236 5C19.9311 5.50591 19.6665 6.02642 19.4308 6.55936C17.1541 6.2274 14.8388 6.2274 12.562 6.55936C12.3262 6.02648 12.0615 5.50597 11.7692 5C9.63041 5.35286 7.54825 5.97376 5.57524 6.84703C1.65831 12.4543 0.596486 17.9224 1.1274 23.3128C3.42125 24.9526 5.98873 26.1998 8.71822 27C9.33283 26.2002 9.87667 25.3517 10.344 24.4635C9.45639 24.1427 8.59969 23.747 7.78382 23.2808C7.99855 23.1301 8.20855 22.9749 8.41148 22.8242C10.7855 23.9044 13.3765 24.4645 15.9999 24.4645C18.6233 24.4645 21.2144 23.9044 23.5884 22.8242C23.7937 22.9863 24.0037 23.1416 24.2161 23.2808C23.3986 23.7477 22.5404 24.1442 21.6512 24.4658C22.1179 25.3535 22.6618 26.2013 23.2769 27C26.0088 26.203 28.5782 24.9564 30.8725 23.3151V23.3151C31.4954 17.0639 29.8083 11.6461 26.4129 6.84247ZM11.0165 19.9977C9.53701 19.9977 8.31473 18.6986 8.31473 17.1005C8.31473 15.5023 9.49453 14.1918 11.0118 14.1918C12.529 14.1918 13.7418 15.5023 13.7159 17.1005C13.6899 18.6986 12.5243 19.9977 11.0165 19.9977ZM20.9834 19.9977C19.5016 19.9977 18.284 18.6986 18.284 17.1005C18.284 15.5023 19.4638 14.1918 20.9834 14.1918C22.503 14.1918 23.7064 15.5023 23.6804 17.1005C23.6545 18.6986 22.4912 19.9977 20.9834 19.9977Z" fill="url(#paint0_linear_415_260)"/>
<defs>
<linearGradient id="paint0_linear_415_260" x1="16" y1="5" x2="16" y2="27" gradientUnits="userSpaceOnUse">
<stop stop-color="#6572FF"/>
<stop offset="1" stop-color="#5353E6"/>
</linearGradient>
</defs>
</svg>
