<svg width="32" height="32" viewBox="0 0 32 32" fill="none" xmlns="http://www.w3.org/2000/svg">
<path d="M12.1471 29.457C13.4699 29.8113 14.8589 30 16.2912 30C17.7384 30 19.1413 29.8074 20.4764 29.446C20.475 29.4252 20.4743 28.3423 20.4743 28.3217C20.4743 28.1299 20.4767 27.798 20.4798 27.3561C20.486 26.4765 20.4953 25.1611 20.4953 23.648C20.4953 22.0547 19.9724 21.035 19.3658 20.5039C23.0888 20.079 27 18.6344 27 12.1125C27 10.243 26.3516 8.73471 25.2849 7.54505C25.4522 7.12016 26.0379 5.37815 25.1176 3.04131C25.1176 3.04131 23.7163 2.57394 20.5162 4.78332C19.1776 4.40093 17.7553 4.20973 16.3331 4.20973C14.9108 4.20973 13.4885 4.40093 12.1499 4.78332C8.94985 2.59518 7.54851 3.04131 7.54851 3.04131C6.62822 5.37815 7.21386 7.12016 7.38118 7.54505C6.31449 8.73471 5.6661 10.2643 5.6661 12.1125C5.6661 18.6132 9.5564 20.079 13.2794 20.5039C12.7983 20.9288 12.3591 21.6723 12.2127 22.777C11.2506 23.2232 8.84527 23.9454 7.33935 21.3749C7.02562 20.8651 6.08441 19.6117 4.76673 19.6329C3.36539 19.6542 4.20201 20.4402 4.78765 20.7588C5.49878 21.1625 6.31449 22.6708 6.50273 23.1594C6.83738 24.1154 7.92499 25.9424 12.129 25.1564C12.129 26.0851 12.1379 26.9777 12.1441 27.598C12.1474 27.9283 12.1499 28.1815 12.1499 28.3217C12.1499 28.3459 12.149 29.4326 12.1471 29.457Z" fill="url(#paint0_linear_415_244)"/>
<defs>
<linearGradient id="paint0_linear_415_244" x1="15.5" y1="3" x2="15.5" y2="30" gradientUnits="userSpaceOnUse">
<stop stop-color="#160581"/>
<stop offset="1" stop-color="#090139"/>
</linearGradient>
</defs>
</svg>
